<svg width="64" height="64" viewBox="0 0 64 64" fill="none" xmlns="http://www.w3.org/2000/svg">
<path d="M58 46.8792L56.9429 38.105C55.6038 39.3031 54.2472 40.2369 52.8729 40.9064C51.2167 41.6816 49.3315 42.0692 47.2172 42.0692C44.7506 42.0692 42.6892 41.5407 41.033 40.4835C39.2711 39.3559 38.0906 37.735 37.4916 35.6207H50.8643L49.9129 28.1151H36.9102C37.474 26.1418 38.6192 24.6089 40.3459 23.5165C41.8963 22.5299 43.852 22.0365 46.2129 22.0365C48.1158 22.0365 49.9129 22.3889 51.6043 23.0937C52.8729 23.6575 54.1415 24.4151 55.41 25.3665L54.2472 16.2223C51.1462 14.5309 47.8515 13.6852 44.363 13.6852C39.2887 13.6852 35.1835 15.218 32.0473 18.2837C28.8407 21.4199 27.2374 25.5956 27.2374 30.8108C27.2374 36.625 29.0521 41.3821 32.6816 45.0821C36.0645 48.5706 40.5749 50.3149 46.2129 50.3149C50.512 50.3149 54.441 49.1697 58 46.8792Z" fill="#FF2070"/>
<path d="M16.6771 13.6852C13.0476 13.6852 9.48855 14.6718 6 16.6452L7.05714 25.3665C9.6295 23.217 12.5014 22.1423 15.6728 22.1423C18.9147 22.1423 21.5751 23.1113 23.6542 25.0494C25.7332 26.9522 26.7727 29.4012 26.7727 32.3965C26.7727 35.2155 25.8565 37.506 24.0242 39.2678C22.1918 40.9945 19.8132 41.8578 16.8885 41.8578C14.1399 41.8578 11.4442 41.1178 8.80141 39.6378L9.9114 48.6235C13.0828 49.7511 15.849 50.3149 18.2099 50.3149C23.4251 50.3149 27.6889 48.694 31.0012 45.4521C34.2784 42.175 35.9169 37.964 35.9169 32.8193C35.9169 27.4632 34.0669 22.9351 30.367 19.2351C26.6318 15.5352 22.0685 13.6852 16.6771 13.6852Z" fill="#FF2070"/>
</svg>
