<svg width="24" height="24" viewBox="0 0 24 24" fill="none" xmlns="http://www.w3.org/2000/svg">
<path d="M19.7842 4.93649C19.3715 4.55145 18.7608 4.408 18.1913 4.559L4.9116 8.06964C4.31075 8.22139 3.88488 8.65702 3.77015 9.21041C3.65296 9.77363 4.06232 10.4886 4.59714 10.7876L8.74942 13.1076C9.1753 13.3454 9.72497 13.2858 10.0774 12.9627L14.8322 8.61323C15.0715 8.38673 15.4677 8.38673 15.707 8.61323C15.9464 8.83217 15.9464 9.18701 15.707 9.4135L10.944 13.7637C10.5908 14.0861 10.5247 14.5881 10.7847 14.9777L13.3218 18.7903C13.6189 19.2433 14.1306 19.5 14.6919 19.5C14.7579 19.5 14.8322 19.5 14.8982 19.4924C15.542 19.417 16.0537 19.0168 16.2435 18.4506L20.1804 6.39359C20.3537 5.88021 20.1969 5.32153 19.7842 4.93649Z" fill="white"/>
</svg>
